<svg width="25" height="24" viewBox="0 0 25 24" fill="none" xmlns="http://www.w3.org/2000/svg">
<path d="M12.1904 22C6.66754 22 2.19043 17.5228 2.19043 12C2.19043 6.47715 6.66758 2 12.1904 2C16.668 2 20.4161 4.94289 21.6904 9H19.1904" stroke="#141B34" stroke-width="1.5" stroke-linecap="round" stroke-linejoin="round"/>
<path d="M12.1904 8V12L14.1904 14" stroke="#141B34" stroke-width="1.5" stroke-linecap="round" stroke-linejoin="round"/>
<path d="M22.1455 13C22.1752 12.6709 22.1904 12.3373 22.1904 12M15.1904 22C15.532 21.8876 15.8657 21.7564 16.1904 21.6078M20.981 17C21.1739 16.6284 21.3459 16.2433 21.4954 15.8462M18.3829 20.2292C18.7273 19.9441 19.0535 19.6358 19.3592 19.3065" stroke="#141B34" stroke-width="1.5" stroke-linecap="round" stroke-linejoin="round"/>
</svg>
