<svg width="25" height="24" viewBox="0 0 25 24" fill="none" xmlns="http://www.w3.org/2000/svg">
<path d="M12.8779 22H6.9688C5.42342 22 4.19424 21.248 3.09059 20.1966C0.831296 18.0441 4.54073 16.324 5.9555 15.4816C8.0563 14.2307 10.5147 13.7719 12.8779 14.1052C13.7354 14.2261 14.5705 14.4514 15.3779 14.7809" stroke="#001B12" stroke-width="1.5" stroke-linecap="round" stroke-linejoin="round"/>
<path d="M16.8779 6.5C16.8779 8.98528 14.8632 11 12.3779 11C9.89265 11 7.87793 8.98528 7.87793 6.5C7.87793 4.01472 9.89265 2 12.3779 2C14.8632 2 16.8779 4.01472 16.8779 6.5Z" stroke="#001B12" stroke-width="1.5"/>
<path d="M18.8779 22V15M15.3779 18.5H22.3779" stroke="#001B12" stroke-width="1.5" stroke-linecap="round"/>
</svg>
